<?xml version="1.0" encoding="utf-8"?>
<svg width="429" height="81.162" viewBox="0 0 370 70" class="looka-1j8o68f" xmlns="http://www.w3.org/2000/svg">
  <defs id="SvgjsDefs1616"></defs>
  <g id="SvgjsG1617" featurekey="PG4fjM-0" transform="matrix(0.9859,0,0,0.9859,-14.2958,-14.2958)" fill="#3dd2cc">
    <polygon points="32.5,58.8 14.5,74.3 14.5,85.5 32.5,85.5"></polygon>
    <polygon points="43,49.8 38.5,53.7 38.5,85.5 56.5,85.5 56.5,58.4"></polygon>
    <polygon points="62.5,52.1 62.5,85.5 80.5,85.5 80.5,36 78.1,33.9"></polygon>
    <polygon points="42.6,44.9 56.1,53.4 77.7,28.3 82.2,32.1 85.5,14.5 68.6,20.5 73.1,24.3 54.9,45.6 42.1,37.4 14.5,61.1 14.5,69"></polygon>
  </g>
  <g id="SvgjsG1618" featurekey="jxYttZ-0" transform="matrix(3.1461,0,0,3.1461,86.854,-3.5348)" fill="#ffffff">
    <path d="M11.9 14.5c0.06 0.14 0.54 1.5-0.08 2.92-0.72 1.7-2.74 2.76-5.26 2.78-2.18 0-4.16-0.96-5.56-2.48l1.48-1.48c0.7 1.24 2.48 2.12 4.08 2.12 1.74-0.02 2.76-0.66 3.18-1.66 0.32-0.74 0.06-1.54 0.04-1.56-0.42-1.16-1.58-1.42-3.22-1.92-1.86-0.56-4-1.02-4.7-2.98-0.38-1.02-0.28-2.2 0.24-3.16 1.16-2.2 4.12-2.26 4.46-2.26 2.2 0 4.16 0.96 5.56 2.5l-1.46 1.46c-0.82-1.2-2.42-2.12-4.1-2.12-0.02 0-1.78 0-2.46 1.28-0.26 0.5-0.32 1.16-0.14 1.68 0.4 1.1 1.54 1.36 3.14 1.84 1.9 0.58 4.04 1.02 4.8 3.04zM18.96 9.92c2.84 0 3.98 1.72 3.98 3.18l0 6.9-2.06 0 0-1.08c-0.72 0.98-2 1.26-2.8 1.26-2.26 0-3.74-1.32-3.74-3.08 0-2.46 1.84-3.34 3.74-3.34l2.8 0 0-0.66c0-0.62-0.24-1.48-1.92-1.48-0.94 0-1.8 0.5-2.36 1.28l-1.42-1.28c0.94-1.04 2.28-1.7 3.78-1.7zM20.88 16.92l0-1.48-2.52 0c-1.22 0-2.08 0.62-1.94 1.74 0.12 0.94 0.88 1.32 1.94 1.32 1.9 0 2.52-0.9 2.52-1.58zM27.7 4.62l0 15.38-2.08 0 0-15.38 2.08 0zM40.02 15.08l0 0.74-7.78 0c0 1.82 1.74 2.7 3.02 2.7 0.94 0 1.98-0.5 2.54-1.3l1.42 1.28c-0.66 0.9-1.74 1.7-3.96 1.7-3.2 0-5.16-2.18-5.16-5.12s1.9-5.14 4.96-5.14 4.46 1.7 4.88 4.18c0.06 0.32 0.08 0.64 0.08 0.96zM32.28 14.12l5.58 0c0-1.6-1.28-2.48-2.8-2.48s-2.78 1.02-2.78 2.48zM46.24 9.92c2.84 0 3.98 1.72 3.98 3.18l0 6.9-2.06 0 0-1.08c-0.72 0.98-2 1.26-2.8 1.26-2.26 0-3.74-1.32-3.74-3.08 0-2.46 1.84-3.34 3.74-3.34l2.8 0 0-0.66c0-0.62-0.24-1.48-1.92-1.48-0.94 0-1.8 0.5-2.36 1.28l-1.42-1.28c0.94-1.04 2.28-1.7 3.78-1.7zM48.16 16.92l0-1.48-2.52 0c-1.22 0-2.08 0.62-1.94 1.74 0.12 0.94 0.88 1.32 1.94 1.32 1.9 0 2.52-0.9 2.52-1.58zM54.98 4.62l0 15.38-2.08 0 0-15.38 2.08 0zM60.34 10.12l0 9.88-2.06 0 0-9.88 2.06 0zM60.44 6.5c0 0.64-0.5 1.14-1.14 1.14-0.62 0-1.12-0.5-1.12-1.14 0-0.62 0.5-1.12 1.12-1.12 0.64 0 1.14 0.5 1.14 1.12zM70.14 10.12l0 1.76-4.98 6.44 4.98 0 0 1.68-7.1 0 0-1.88 4.96-6.32-4.96 0 0-1.68 7.1 0zM82.06 15.08l0 0.74-7.78 0c0 1.82 1.74 2.7 3.02 2.7 0.94 0 1.98-0.5 2.54-1.3l1.42 1.28c-0.66 0.9-1.74 1.7-3.96 1.7-3.2 0-5.16-2.18-5.16-5.12s1.9-5.14 4.96-5.14 4.46 1.7 4.88 4.18c0.06 0.32 0.08 0.64 0.08 0.96zM74.32 14.12l5.58 0c0-1.6-1.28-2.48-2.8-2.48s-2.78 1.02-2.78 2.48zM90 10.24l-0.44 1.62c-0.14-0.08-0.58-0.22-0.94-0.22-1.7 0-2.5 1.62-2.5 3.62l0 4.74-2.06 0 0-9.88 2.06 0 0 1.4c0.24-0.92 1.3-1.58 2.48-1.58 0.54 0 1.12 0.14 1.4 0.3z"></path>
  </g>
</svg>
